<?xml version="1.0" encoding="utf-8"?>
<!-- Generator: Adobe Illustrator 24.0.1, SVG Export Plug-In . SVG Version: 6.00 Build 0)  -->
<svg version="1.1" id="Capa_1" xmlns="http://www.w3.org/2000/svg" xmlns:xlink="http://www.w3.org/1999/xlink" x="0px" y="0px"
	 viewBox="0 0 817.1 205.29" style="enable-background:new 0 0 817.1 205.29;" xml:space="preserve">
<style type="text/css">
	.st0{fill:#001514;}
</style>
<path class="st0" d="M88.87,120.3h65.1v5.2c0,11.84-1.4,22.31-4.18,31.43c-2.72,8.44-7.31,16.33-13.77,23.67
	c-14.63,16.46-33.23,24.69-55.81,24.69c-22.04,0-40.92-7.96-56.63-23.88C7.86,165.43,0,146.25,0,123.87
	c0-22.86,7.99-42.24,23.98-58.16c15.98-15.98,35.44-23.98,58.36-23.98c12.31,0,23.81,2.52,34.49,7.55
	c10.2,5.03,20.24,13.2,30.1,24.49L129.99,90c-12.92-17.21-28.67-25.81-47.24-25.81c-16.67,0-30.64,5.75-41.94,17.24
	c-11.29,11.29-16.94,25.44-16.94,42.45c0,17.55,6.29,32,18.88,43.36c11.77,10.54,24.52,15.81,38.26,15.81
	c11.7,0,22.21-3.94,31.53-11.84c9.32-7.96,14.52-17.48,15.61-28.57H88.87V120.3z M207.64,44.8v157.54h-23.77V44.8H207.64z
	 M326.5,120.3h65.1v5.2c0,11.84-1.4,22.31-4.18,31.43c-2.72,8.44-7.31,16.33-13.77,23.67c-14.63,16.46-33.23,24.69-55.81,24.69
	c-22.04,0-40.92-7.96-56.63-23.88c-15.71-15.98-23.57-35.17-23.57-57.55c0-22.86,7.99-42.24,23.98-58.16
	c15.98-15.98,35.44-23.98,58.36-23.98c12.31,0,23.81,2.52,34.49,7.55c10.2,5.03,20.24,13.2,30.1,24.49L367.62,90
	c-12.92-17.21-28.67-25.81-47.24-25.81c-16.67,0-30.64,5.75-41.94,17.24c-11.29,11.29-16.94,25.44-16.94,42.45
	c0,17.55,6.29,32,18.88,43.36c11.77,10.54,24.52,15.81,38.26,15.81c11.7,0,22.21-3.94,31.53-11.84
	c9.32-7.96,14.52-17.48,15.61-28.57H326.5V120.3z M508.43,67.14h-63.16v37.85h61.32v22.34h-61.32v52.65h63.16v22.34H421.5V44.8
	h86.93V67.14z M531.79,122.85c0-22.17,8.13-41.22,24.39-57.14c16.19-15.92,35.64-23.88,58.36-23.88c22.45,0,41.7,8.03,57.75,24.08
	c16.12,16.05,24.18,35.34,24.18,57.85c0,22.65-8.1,41.87-24.28,57.65c-16.26,15.85-35.88,23.77-58.87,23.77
	c-20.34,0-38.6-7.04-54.79-21.12C540.7,168.49,531.79,148.09,531.79,122.85z M555.77,123.16c0,17.41,5.85,31.73,17.55,42.96
	c11.63,11.22,25.06,16.84,40.3,16.84c16.53,0,30.47-5.71,41.83-17.14c11.36-11.56,17.04-25.64,17.04-42.24
	c0-16.8-5.61-30.88-16.83-42.24c-11.16-11.43-24.96-17.14-41.42-17.14c-16.39,0-30.24,5.71-41.53,17.14
	C561.42,92.62,555.77,106.56,555.77,123.16z M746.7,41.13h-5.01l-4.55-14.4h-13.5l-4.61,14.4h-4.96L727.52,0h5.74L746.7,41.13z
	 M735.77,22.56l-5.39-17.02l-5.36,17.02H735.77z M782.47,41.13h-5.98l-12.07-18.69h-5.31v18.69h-4.78V0h11.63
	c3.91,0,6.99,0.95,9.26,2.84c2.26,1.89,3.4,4.53,3.4,7.91c0,2.51-0.83,4.74-2.48,6.69c-1.65,1.95-3.93,3.28-6.82,3.98L782.47,41.13z
	 M759.12,18.28h6.03c2.53,0,4.58-0.69,6.15-2.06s2.36-3.09,2.36-5.17c0-4.59-2.8-6.88-8.4-6.88h-6.15V18.28z M817.1,3.88h-12.68
	v37.26h-4.75V3.88h-12.74V0h30.17V3.88z"/>
</svg>
